<?xml version="1.0" standalone="no"?>
<!DOCTYPE svg PUBLIC "-//W3C//DTD SVG 20010904//EN"
 "http://www.w3.org/TR/2001/REC-SVG-20010904/DTD/svg10.dtd">
<svg version="1.0" xmlns="http://www.w3.org/2000/svg"
 width="252.000000pt" height="303.000000pt" viewBox="0 0 252.000000 303.000000"
 preserveAspectRatio="xMidYMid meet">

<g transform="translate(0.000000,303.000000) scale(0.100000,-0.100000)"
fill="#000000" stroke="none">
<path d="M630 2678 c-327 -187 -603 -342 -612 -345 -17 -5 -18 -50 -18 -767
l0 -761 634 -397 c348 -219 638 -398 644 -398 6 0 15 7 20 16 5 8 281 183 613
389 l604 373 0 772 0 773 -615 342 c-430 240 -624 343 -645 343 -21 0 -211
-104 -625 -340z m1250 -48 c300 -166 549 -306 553 -310 10 -8 -370 -244 -393
-244 -10 0 -1102 670 -1137 698 -1 1 78 47 175 103 l177 101 40 -23 c22 -12
285 -158 585 -325z m-471 -239 c309 -192 562 -353 562 -358 1 -11 -282 -184
-296 -181 -19 5 -1125 710 -1125 717 0 7 279 170 291 171 4 0 259 -157 568
-349z m198 -587 c-7 -7 -90 -60 -186 -118 l-173 -107 -552 342 c-303 188 -566
352 -584 364 l-33 22 202 115 201 115 569 -361 c433 -275 565 -364 556 -372z
m851 -990 c-15 -14 -1165 -724 -1173 -724 -3 0 -5 162 -5 360 l0 360 400 0
400 0 0 265 0 265 -400 0 -401 0 3 97 3 96 175 108 c96 60 178 109 183 109 4
0 7 -88 7 -195 0 -165 2 -197 15 -201 9 -4 92 41 207 113 l191 120 1 213 1
213 200 123 200 123 3 -717 c2 -565 -1 -719 -10 -728z m-1793 1059 l560 -349
3 -92 3 -92 -386 0 -385 0 0 -265 0 -265 385 0 385 0 0 -355 c0 -195 -3 -355
-6 -355 -3 0 -269 165 -590 366 l-584 366 0 709 0 710 28 -15 c15 -8 279 -172
587 -363z m1345 -72 l0 -179 -47 -30 c-27 -16 -96 -59 -155 -95 l-108 -67 0
179 0 179 153 95 c83 53 153 96 155 96 1 1 2 -80 2 -178z m40 -726 l0 -225
-780 0 -780 0 0 225 0 225 780 0 780 0 0 -225z"/>
<path d="M773 1183 c-23 -4 -33 -23 -13 -23 6 0 10 -40 10 -100 0 -60 -4 -100
-10 -100 -5 0 -10 -4 -10 -10 0 -5 20 -10 45 -10 44 0 60 12 30 24 -16 6 -20
62 -6 84 5 8 17 12 27 10 16 -3 20 -14 22 -61 3 -56 4 -57 32 -57 30 0 40 13
20 25 -5 3 -10 30 -10 59 0 28 -5 57 -12 64 -15 15 -54 16 -63 2 -16 -25 -26
-6 -23 41 3 54 -1 59 -39 52z"/>
<path d="M585 1155 c-49 -48 -22 -106 53 -119 32 -5 42 -11 42 -25 0 -45 -76
-56 -95 -13 -14 32 -25 27 -25 -13 0 -31 3 -35 34 -41 44 -8 90 2 109 24 44
50 23 108 -43 118 -48 8 -68 27 -50 49 20 25 80 16 80 -11 0 -8 5 -14 10 -14
17 0 12 57 -6 64 -36 14 -85 6 -109 -19z"/>
<path d="M974 1166 c-9 -24 4 -48 23 -44 12 2 18 12 18 28 0 29 -32 41 -41 16z"/>
<path d="M1260 1171 c0 -5 7 -11 15 -15 12 -4 15 -25 15 -96 0 -71 -3 -92 -15
-96 -28 -11 -15 -24 25 -24 22 0 40 5 40 10 0 6 -7 10 -15 10 -12 0 -15 15
-14 78 l1 77 41 -87 c23 -48 46 -87 50 -85 4 1 25 40 47 87 l40 85 0 -77 c0
-46 -4 -78 -10 -78 -5 0 -10 -4 -10 -10 0 -5 23 -10 50 -10 48 0 66 12 35 24
-12 4 -15 25 -15 96 0 71 3 92 15 96 28 11 15 24 -23 24 -37 0 -38 0 -76 -82
l-38 -83 -40 83 -39 82 -39 0 c-22 0 -40 -4 -40 -9z"/>
<path d="M1614 1166 c-9 -24 4 -48 23 -44 12 2 18 12 18 28 0 29 -32 41 -41
16z"/>
<path d="M1925 1146 c-15 -11 -18 -26 -17 -90 2 -93 13 -118 50 -114 29 3 45
38 18 38 -12 0 -16 11 -16 45 0 38 3 45 20 45 11 0 20 5 20 10 0 6 -9 10 -20
10 -15 0 -20 7 -20 29 0 36 -11 45 -35 27z"/>
<path d="M978 1093 c-26 -4 -41 -23 -18 -23 6 0 10 -25 10 -55 0 -30 -4 -55
-10 -55 -5 0 -10 -4 -10 -10 0 -5 20 -10 45 -10 25 0 45 5 45 10 0 6 -4 10
-10 10 -6 0 -10 30 -10 70 0 39 -3 69 -7 69 -5 -1 -20 -4 -35 -6z"/>
<path d="M1083 1093 c-23 -4 -33 -23 -13 -23 6 0 10 -38 10 -95 0 -57 -4 -95
-10 -95 -5 0 -10 -4 -10 -10 0 -5 20 -10 45 -10 25 0 45 5 45 10 0 6 -4 10
-10 10 -5 0 -10 14 -10 30 0 24 4 30 21 30 30 0 89 62 89 94 0 49 -66 86 -97
55 -8 -8 -13 -8 -17 0 -4 6 -10 10 -14 10 -4 -1 -17 -4 -29 -6z m102 -78 c0
-36 -2 -40 -25 -40 -20 0 -26 6 -28 28 -5 42 5 59 30 55 20 -3 23 -9 23 -43z"/>
<path d="M1618 1093 c-26 -4 -41 -23 -18 -23 6 0 10 -25 10 -55 0 -30 -4 -55
-10 -55 -5 0 -10 -4 -10 -10 0 -5 20 -10 45 -10 25 0 45 5 45 10 0 6 -4 10
-10 10 -6 0 -10 30 -10 70 0 39 -3 69 -7 69 -5 -1 -20 -4 -35 -6z"/>
<path d="M1723 1093 c-23 -4 -33 -23 -13 -23 6 0 10 -25 10 -55 0 -30 -4 -55
-10 -55 -5 0 -10 -4 -10 -10 0 -5 20 -10 45 -10 25 0 45 5 45 10 0 6 -4 10
-10 10 -5 0 -10 23 -10 51 0 47 2 50 23 47 19 -3 22 -10 25 -60 3 -57 4 -58
32 -58 29 0 40 13 20 25 -5 3 -8 27 -7 54 1 29 -3 55 -12 64 -15 19 -52 22
-68 6 -8 -8 -13 -8 -17 0 -4 6 -10 10 -14 10 -4 -1 -17 -4 -29 -6z"/>
</g>
</svg>
